<svg id="Laag_1" xmlns="http://www.w3.org/2000/svg" viewBox="0 0 406.7 221.3">
  <style>
    .st0{fill:#FFFFFF;}
  </style>
  <path class="st0" d="M378.1 171.4s-4.2 2.8-9.3 5.6c-4.7 2.6-10.3 5.1-13.9 5.2-6.3.2-12.7-2.2-19.6-7.2-2.3-1.7-4.7-3.7-7.1-6-34.1-32.4-46.4-126.4-52-144.3l-3.7-19.4h-43.4l-43.4 105.4L145.6 5.3h-43.4L7.9 217h45l70.7-173.4L180.4 217h45.5l-21.4-56.6 45-115.5 4.3 26.2c3.2 27 15.6 73.4 37.6 106.8 6.6 10 14 18.8 22.2 25.7 4.2 3.4 8.8 6.9 13.4 9.2 6.6 3.3 13.4 4.8 20.9 5.2 6.2.3 12.6-.4 19.4-2.4 4.9-1.5 10-3.6 15.2-6.4 6.3-3.5 19.7-13.7 19.7-13.7l-24.1-24.1z"/>
</svg>
